<svg xmlns="http://www.w3.org/2000/svg" viewBox="0 0 306.25 76.8"><defs><style>.cls-1{fill:snow;}</style></defs><g id="Layer_2" data-name="Layer 2"><g id="Layer_1-2" data-name="Layer 1"><path class="cls-1" d="M6.05,33H1.48V31.6L15.7,21h1.18v9.33l9.68-.54V33l-9.68-.51V57.27c0,2.65.53,4.53,1.6,5.62a5.52,5.52,0,0,0,4.14,1.64,7.14,7.14,0,0,0,2.5-.43,5.85,5.85,0,0,0,2-1.17v1.68a9.67,9.67,0,0,1-3.85,3A14.06,14.06,0,0,1,17,69a12.55,12.55,0,0,1-5.6-1.22A8.9,8.9,0,0,1,7.5,64a13.72,13.72,0,0,1-1.45-6.72Z" transform="translate(-1.48 -9.96)"/><path class="cls-1" d="M31.77,38.69a17.72,17.72,0,0,1,6.74-7.07,19.68,19.68,0,0,1,10.16-2.56,18.32,18.32,0,0,1,8.9,2,14.12,14.12,0,0,1,5.71,5.65,17.16,17.16,0,0,1,2,8.38c0,.44,0,.88-.06,1.33s-.09.82-.14,1.13H37.18V45.63l18.91-.2-.71.66c0-.41.06-.86.08-1.32s0-1,0-1.64a18.57,18.57,0,0,0-1.68-8.5,5.48,5.48,0,0,0-5.15-3.26A6.94,6.94,0,0,0,42.49,35q-2.22,3.6-2.22,10.24a25.05,25.05,0,0,0,1.89,10.15A15.14,15.14,0,0,0,47.4,62a13.27,13.27,0,0,0,7.75,2.31,13.65,13.65,0,0,0,5.45-1,12.54,12.54,0,0,0,4-2.59v1.71a13.57,13.57,0,0,1-6,4.81A22.37,22.37,0,0,1,49.33,69,21.06,21.06,0,0,1,39.17,66.5,18.09,18.09,0,0,1,32,59.59a20.33,20.33,0,0,1-2.64-10.53A21.77,21.77,0,0,1,31.77,38.69Z" transform="translate(-1.48 -9.96)"/><path class="cls-1" d="M80.57,66.5a18.1,18.1,0,0,1-7.12-6.93,20.35,20.35,0,0,1-2.64-10.51A19.91,19.91,0,0,1,73.5,38.69a19.11,19.11,0,0,1,7.39-7.07,21.94,21.94,0,0,1,10.66-2.56q6.72,0,10.29,2.82a8.28,8.28,0,0,1,3.58,6.67,5,5,0,0,1-1.51,3.75,4.9,4.9,0,0,1-3.57,1.49,5,5,0,0,1-3.63-1.47,5.07,5.07,0,0,1,0-7.14,4.79,4.79,0,0,1,8.2,3.45h-1.44a7,7,0,0,0-2.88-4.86,10.09,10.09,0,0,0-6.23-1.86,11.21,11.21,0,0,0-6.46,1.88,12.11,12.11,0,0,0-4.26,5.27A19.51,19.51,0,0,0,82.1,47,20.75,20.75,0,0,0,84,56.25a14.09,14.09,0,0,0,5.12,5.86,13.13,13.13,0,0,0,7.13,2,14.81,14.81,0,0,0,5.45-1,11.69,11.69,0,0,0,4-2.48v1.68a14.06,14.06,0,0,1-6,4.77,21.73,21.73,0,0,1-9,1.8A20.77,20.77,0,0,1,80.57,66.5Z" transform="translate(-1.48 -9.96)"/><path class="cls-1" d="M124.79,36.25a11.92,11.92,0,0,1,4.92-5.2,15.73,15.73,0,0,1,8-2,14.45,14.45,0,0,1,9.47,3q3.65,3,3.65,9.18V62.34a6.28,6.28,0,0,0,.31,2.17,2.25,2.25,0,0,0,1.31,1.23,13.89,13.89,0,0,0,3,.78V68.2H135.92V66.52c1.8-.31,2.94-.71,3.42-1.21a3.92,3.92,0,0,0,.72-2.73V42.34q0-4.34-2-6.46a7.44,7.44,0,0,0-5.66-2.13,9.15,9.15,0,0,0-4.63,1.11,7.78,7.78,0,0,0-2.95,2.91V62.58a4,4,0,0,0,.7,2.73c.47.5,1.6.9,3.4,1.21V68.2H109.32V66.52a7.8,7.8,0,0,0,3.77-1.31,3.89,3.89,0,0,0,.84-2.87V17.62a4.61,4.61,0,0,0-.43-2.42,4.13,4.13,0,0,0-2-1.18l-2.15-.66V11.8L124.79,10Z" transform="translate(-1.48 -9.96)"/><path class="cls-1" d="M173.53,60.59a39.06,39.06,0,0,1-.76,8.28A19,19,0,0,1,170.31,75a22.16,22.16,0,0,1-4.55,5.06,63.05,63.05,0,0,1-7.07,5l-2.62,1.68-1-1.41a23.8,23.8,0,0,0,3.75-4.08,17.35,17.35,0,0,0,2.33-4.63,27.29,27.29,0,0,0,1.17-5.88c.22-2.22.33-4.85.33-7.87V37a4.81,4.81,0,0,0-.41-2.42,4,4,0,0,0-2-1.17l-2.11-.66V31.13l15.43-1.83ZM163.28,21.92a5.12,5.12,0,0,1-1.7-3.92,5.15,5.15,0,0,1,1.7-4,6.08,6.08,0,0,1,8.18,0,5.2,5.2,0,0,1,1.68,4,5.17,5.17,0,0,1-1.68,3.92,6.08,6.08,0,0,1-8.18,0Z" transform="translate(-1.48 -9.96)"/><path class="cls-1" d="M192.06,66.5a18.67,18.67,0,0,1-7.46-6.91,19.56,19.56,0,0,1-2.75-10.49,19.54,19.54,0,0,1,2.77-10.45,19.32,19.32,0,0,1,7.54-7,22.42,22.42,0,0,1,10.7-2.54,22.81,22.81,0,0,1,10.61,2.44,18.81,18.81,0,0,1,7.46,6.88,19.53,19.53,0,0,1,2.75,10.49,19.31,19.31,0,0,1-10.33,17.54A22.29,22.29,0,0,1,202.67,69,22.67,22.67,0,0,1,192.06,66.5ZM209.68,62Q212,57.31,212,49.3a34.35,34.35,0,0,0-1.17-9.53,14.68,14.68,0,0,0-3.28-6.22,6.7,6.7,0,0,0-5-2.18c-3,0-5.24,1.55-6.82,4.67s-2.36,7.32-2.36,12.63a34.35,34.35,0,0,0,1.17,9.53,14.9,14.9,0,0,0,3.28,6.23,6.71,6.71,0,0,0,5,2.21C205.86,66.64,208.1,65.09,209.68,62Z" transform="translate(-1.48 -9.96)"/><path class="cls-1" d="M268.58,59.51A17.55,17.55,0,0,1,252.82,69a14.13,14.13,0,0,1-6.88-1.61,9.45,9.45,0,0,1-4.14-4.06l-4.49,4.92h-5.47V17.62a4.87,4.87,0,0,0-.41-2.42,4,4,0,0,0-2-1.18l-2.11-.66V11.8L242.74,10V36.33A11.34,11.34,0,0,1,247.58,31a15,15,0,0,1,7.7-2,14.38,14.38,0,0,1,7.89,2.29A16,16,0,0,1,268.91,38a24,24,0,0,1,2.15,10.62A22.45,22.45,0,0,1,268.58,59.51ZM257.09,38q-2.74-4.25-7-4.24a8.65,8.65,0,0,0-4.41,1.07,7.67,7.67,0,0,0-2.89,3V61.91a6.68,6.68,0,0,0,2.64,2.7,7.82,7.82,0,0,0,4.2,1.13A8.59,8.59,0,0,0,257,61.48q2.82-4.24,2.83-11.75T257.09,38Z" transform="translate(-1.48 -9.96)"/><path class="cls-1" d="M279.2,34.53A12.79,12.79,0,0,1,285,30.47a24.51,24.51,0,0,1,8.69-1.41,31.76,31.76,0,0,1,7.25.73,16.42,16.42,0,0,1,4.59,1.62l.19,10h-1.6A13.86,13.86,0,0,0,300.33,34a9.2,9.2,0,0,0-6.54-2.59A8.37,8.37,0,0,0,288.34,33a5,5,0,0,0-1.93,4,4.68,4.68,0,0,0,1.81,3.87,16.68,16.68,0,0,0,5.22,2.54l3.16,1a19.49,19.49,0,0,1,8.26,4.69,10.64,10.64,0,0,1,2.87,7.74,9.8,9.8,0,0,1-2.26,6.52,14.24,14.24,0,0,1-6.06,4.12,23.54,23.54,0,0,1-8.36,1.43,34.48,34.48,0,0,1-7.91-.88,19.54,19.54,0,0,1-5.8-2.21L277,55h1.6a16.8,16.8,0,0,0,2.64,6.21,12.93,12.93,0,0,0,4.4,4,10.86,10.86,0,0,0,5.31,1.39,8.4,8.4,0,0,0,5.53-1.68,5.31,5.31,0,0,0,2-4.26,5.45,5.45,0,0,0-1.64-4.08,13.39,13.39,0,0,0-5.2-2.71l-3.12-1a22.1,22.1,0,0,1-8.3-4.51,9.54,9.54,0,0,1-3-7.36A10.22,10.22,0,0,1,279.2,34.53Z" transform="translate(-1.48 -9.96)"/></g></g></svg>